<svg xmlns="http://www.w3.org/2000/svg" width="900" height="450" viewBox="0 0 900 450">
  <defs>
    <linearGradient id="bg" x1="0" x2="1" y1="0" y2="1">
      <stop offset="0%" stop-color="#111827"/>
      <stop offset="100%" stop-color="#1f2937"/>
    </linearGradient>
  </defs>
  <rect width="900" height="450" fill="url(#bg)" rx="24"/>
  <rect x="50" y="50" width="520" height="110" rx="18" fill="#0f172a"/>
  <rect x="600" y="50" width="240" height="110" rx="18" fill="#0f172a"/>
  <rect x="50" y="180" width="790" height="200" rx="18" fill="#0f172a"/>
  <rect x="70" y="70" width="260" height="20" rx="10" fill="#38bdf8"/>
  <rect x="70" y="105" width="320" height="14" rx="7" fill="#64748b"/>
  <rect x="610" y="70" width="180" height="20" rx="10" fill="#f472b6"/>
  <rect x="610" y="105" width="180" height="14" rx="7" fill="#64748b"/>
  <rect x="70" y="210" width="120" height="16" rx="8" fill="#94a3b8"/>
  <rect x="220" y="210" width="160" height="16" rx="8" fill="#94a3b8"/>
  <rect x="70" y="240" width="650" height="16" rx="8" fill="#475569"/>
  <rect x="70" y="270" width="520" height="16" rx="8" fill="#475569"/>
  <rect x="70" y="300" width="240" height="16" rx="8" fill="#475569"/>
  <text x="60" y="40" font-family="Inter, sans-serif" font-size="28" fill="#e2e8f0">Campaign Manager</text>
  <text x="60" y="235" font-family="Inter, sans-serif" font-size="18" fill="#cbd5e1">Create, edit, and review campaign details</text>
</svg>
